<?xml version="1.0" encoding="UTF-8"?>
<!DOCTYPE svg PUBLIC "-//W3C//DTD SVG 1.1//EN" "http://www.w3.org/Graphics/SVG/1.1/DTD/svg11.dtd">
<svg width="234mm" height="164mm" viewBox="0 0 23400 16400" version="1.1" xmlns="http://www.w3.org/2000/svg" xmlns:xlink="http://www.w3.org/1999/xlink" stroke-width="28.222" stroke-linejoin="round" xml:space="preserve">
 <path fill="rgb(255,255,255)" stroke="none" d="M 11648,16443 L 0,16443 0,0 23295,0 23295,16443 11648,16443 Z"/>
 <path fill="none" stroke="rgb(179,179,179)" stroke-linejoin="round" d="M 12740,14837 L 2369,14837 2369,507 23110,507 23110,14837 12740,14837 Z"/>
 <path fill="none" stroke="rgb(179,179,179)" stroke-linejoin="round" d="M 2369,506 L 2369,14836"/>
 <path fill="none" stroke="rgb(179,179,179)" stroke-linejoin="round" d="M 4442,506 L 4442,14836"/>
 <path fill="none" stroke="rgb(179,179,179)" stroke-linejoin="round" d="M 6517,506 L 6517,14836"/>
 <path fill="none" stroke="rgb(179,179,179)" stroke-linejoin="round" d="M 8591,506 L 8591,14836"/>
 <path fill="none" stroke="rgb(179,179,179)" stroke-linejoin="round" d="M 10665,506 L 10665,14836"/>
 <path fill="none" stroke="rgb(179,179,179)" stroke-linejoin="round" d="M 12739,506 L 12739,14836"/>
 <path fill="none" stroke="rgb(179,179,179)" stroke-linejoin="round" d="M 14814,506 L 14814,14836"/>
 <path fill="none" stroke="rgb(179,179,179)" stroke-linejoin="round" d="M 16887,506 L 16887,14836"/>
 <path fill="none" stroke="rgb(179,179,179)" stroke-linejoin="round" d="M 18961,506 L 18961,14836"/>
 <path fill="none" stroke="rgb(179,179,179)" stroke-linejoin="round" d="M 21036,506 L 21036,14836"/>
 <path fill="none" stroke="rgb(179,179,179)" stroke-linejoin="round" d="M 23110,506 L 23110,14836"/>
 <path fill="none" stroke="rgb(221,221,221)" stroke-linejoin="round" d="M 3405,506 L 3405,14836"/>
 <path fill="none" stroke="rgb(221,221,221)" stroke-linejoin="round" d="M 5480,506 L 5480,14836"/>
 <path fill="none" stroke="rgb(221,221,221)" stroke-linejoin="round" d="M 7554,506 L 7554,14836"/>
 <path fill="none" stroke="rgb(221,221,221)" stroke-linejoin="round" d="M 9628,506 L 9628,14836"/>
 <path fill="none" stroke="rgb(221,221,221)" stroke-linejoin="round" d="M 11702,506 L 11702,14836"/>
 <path fill="none" stroke="rgb(221,221,221)" stroke-linejoin="round" d="M 13776,506 L 13776,14836"/>
 <path fill="none" stroke="rgb(221,221,221)" stroke-linejoin="round" d="M 15851,506 L 15851,14836"/>
 <path fill="none" stroke="rgb(221,221,221)" stroke-linejoin="round" d="M 17924,506 L 17924,14836"/>
 <path fill="none" stroke="rgb(221,221,221)" stroke-linejoin="round" d="M 19999,506 L 19999,14836"/>
 <path fill="none" stroke="rgb(221,221,221)" stroke-linejoin="round" d="M 22073,506 L 22073,14836"/>
 <path fill="none" stroke="rgb(179,179,179)" stroke-linejoin="round" d="M 23110,14836 L 2369,14836"/>
 <path fill="none" stroke="rgb(179,179,179)" stroke-linejoin="round" d="M 23110,13402 L 2369,13402"/>
 <path fill="none" stroke="rgb(179,179,179)" stroke-linejoin="round" d="M 23110,11970 L 2369,11970"/>
 <path fill="none" stroke="rgb(179,179,179)" stroke-linejoin="round" d="M 23110,10537 L 2369,10537"/>
 <path fill="none" stroke="rgb(179,179,179)" stroke-linejoin="round" d="M 23110,9104 L 2369,9104"/>
 <path fill="none" stroke="rgb(179,179,179)" stroke-linejoin="round" d="M 23110,7671 L 2369,7671"/>
 <path fill="none" stroke="rgb(179,179,179)" stroke-linejoin="round" d="M 23110,6237 L 2369,6237"/>
 <path fill="none" stroke="rgb(179,179,179)" stroke-linejoin="round" d="M 23110,4804 L 2369,4804"/>
 <path fill="none" stroke="rgb(179,179,179)" stroke-linejoin="round" d="M 23110,3372 L 2369,3372"/>
 <path fill="none" stroke="rgb(179,179,179)" stroke-linejoin="round" d="M 23110,1939 L 2369,1939"/>
 <path fill="none" stroke="rgb(179,179,179)" stroke-linejoin="round" d="M 23110,506 L 2369,506"/>
 <path fill="none" stroke="rgb(179,179,179)" stroke-linejoin="round" d="M 2369,14986 L 2369,14836"/>
 <path fill="none" stroke="rgb(179,179,179)" stroke-linejoin="round" d="M 2369,14986 L 2369,14836"/>
 <path fill="none" stroke="rgb(179,179,179)" stroke-linejoin="round" d="M 4442,14986 L 4442,14836"/>
 <path fill="none" stroke="rgb(179,179,179)" stroke-linejoin="round" d="M 4442,14986 L 4442,14836"/>
 <path fill="none" stroke="rgb(179,179,179)" stroke-linejoin="round" d="M 6517,14986 L 6517,14836"/>
 <path fill="none" stroke="rgb(179,179,179)" stroke-linejoin="round" d="M 6517,14986 L 6517,14836"/>
 <path fill="none" stroke="rgb(179,179,179)" stroke-linejoin="round" d="M 8591,14986 L 8591,14836"/>
 <path fill="none" stroke="rgb(179,179,179)" stroke-linejoin="round" d="M 8591,14986 L 8591,14836"/>
 <path fill="none" stroke="rgb(179,179,179)" stroke-linejoin="round" d="M 10665,14986 L 10665,14836"/>
 <path fill="none" stroke="rgb(179,179,179)" stroke-linejoin="round" d="M 10665,14986 L 10665,14836"/>
 <path fill="none" stroke="rgb(179,179,179)" stroke-linejoin="round" d="M 12739,14986 L 12739,14836"/>
 <path fill="none" stroke="rgb(179,179,179)" stroke-linejoin="round" d="M 12739,14986 L 12739,14836"/>
 <path fill="none" stroke="rgb(179,179,179)" stroke-linejoin="round" d="M 14814,14986 L 14814,14836"/>
 <path fill="none" stroke="rgb(179,179,179)" stroke-linejoin="round" d="M 14814,14986 L 14814,14836"/>
 <path fill="none" stroke="rgb(179,179,179)" stroke-linejoin="round" d="M 16887,14986 L 16887,14836"/>
 <path fill="none" stroke="rgb(179,179,179)" stroke-linejoin="round" d="M 16887,14986 L 16887,14836"/>
 <path fill="none" stroke="rgb(179,179,179)" stroke-linejoin="round" d="M 18961,14986 L 18961,14836"/>
 <path fill="none" stroke="rgb(179,179,179)" stroke-linejoin="round" d="M 18961,14986 L 18961,14836"/>
 <path fill="none" stroke="rgb(179,179,179)" stroke-linejoin="round" d="M 21036,14986 L 21036,14836"/>
 <path fill="none" stroke="rgb(179,179,179)" stroke-linejoin="round" d="M 21036,14986 L 21036,14836"/>
 <path fill="none" stroke="rgb(179,179,179)" stroke-linejoin="round" d="M 23110,14986 L 23110,14836"/>
 <path fill="none" stroke="rgb(179,179,179)" stroke-linejoin="round" d="M 23110,14986 L 23110,14836"/>
 <path fill="none" stroke="rgb(179,179,179)" stroke-linejoin="round" d="M 2369,14836 L 23110,14836"/>
 <path fill="none" stroke="rgb(179,179,179)" stroke-linejoin="round" d="M 2220,14836 L 2369,14836"/>
 <path fill="none" stroke="rgb(179,179,179)" stroke-linejoin="round" d="M 2220,14836 L 2369,14836"/>
 <path fill="none" stroke="rgb(179,179,179)" stroke-linejoin="round" d="M 2220,13402 L 2369,13402"/>
 <path fill="none" stroke="rgb(179,179,179)" stroke-linejoin="round" d="M 2220,13402 L 2369,13402"/>
 <path fill="none" stroke="rgb(179,179,179)" stroke-linejoin="round" d="M 2220,11970 L 2369,11970"/>
 <path fill="none" stroke="rgb(179,179,179)" stroke-linejoin="round" d="M 2220,11970 L 2369,11970"/>
 <path fill="none" stroke="rgb(179,179,179)" stroke-linejoin="round" d="M 2220,10537 L 2369,10537"/>
 <path fill="none" stroke="rgb(179,179,179)" stroke-linejoin="round" d="M 2220,10537 L 2369,10537"/>
 <path fill="none" stroke="rgb(179,179,179)" stroke-linejoin="round" d="M 2220,9104 L 2369,9104"/>
 <path fill="none" stroke="rgb(179,179,179)" stroke-linejoin="round" d="M 2220,9104 L 2369,9104"/>
 <path fill="none" stroke="rgb(179,179,179)" stroke-linejoin="round" d="M 2220,7671 L 2369,7671"/>
 <path fill="none" stroke="rgb(179,179,179)" stroke-linejoin="round" d="M 2220,7671 L 2369,7671"/>
 <path fill="none" stroke="rgb(179,179,179)" stroke-linejoin="round" d="M 2220,6237 L 2369,6237"/>
 <path fill="none" stroke="rgb(179,179,179)" stroke-linejoin="round" d="M 2220,6237 L 2369,6237"/>
 <path fill="none" stroke="rgb(179,179,179)" stroke-linejoin="round" d="M 2220,4804 L 2369,4804"/>
 <path fill="none" stroke="rgb(179,179,179)" stroke-linejoin="round" d="M 2220,4804 L 2369,4804"/>
 <path fill="none" stroke="rgb(179,179,179)" stroke-linejoin="round" d="M 2220,3372 L 2369,3372"/>
 <path fill="none" stroke="rgb(179,179,179)" stroke-linejoin="round" d="M 2220,3372 L 2369,3372"/>
 <path fill="none" stroke="rgb(179,179,179)" stroke-linejoin="round" d="M 2220,1939 L 2369,1939"/>
 <path fill="none" stroke="rgb(179,179,179)" stroke-linejoin="round" d="M 2220,1939 L 2369,1939"/>
 <path fill="none" stroke="rgb(179,179,179)" stroke-linejoin="round" d="M 2220,506 L 2369,506"/>
 <path fill="none" stroke="rgb(179,179,179)" stroke-linejoin="round" d="M 2220,506 L 2369,506"/>
 <path fill="none" stroke="rgb(179,179,179)" stroke-linejoin="round" d="M 2369,14836 L 2369,506"/>
 <path fill="rgb(174,207,0)" stroke="none" d="M 20945,3139 L 21194,3139 20945,2889 21194,2889 20945,3139 Z"/>
 <path fill="none" stroke="rgb(174,207,0)" stroke-linejoin="round" d="M 20945,3139 L 21194,3139 20945,2889 21194,2889 20945,3139 Z"/>
 <path fill="rgb(174,207,0)" stroke="none" d="M 18400,4070 L 18649,4070 18400,3820 18649,3820 18400,4070 Z"/>
 <path fill="none" stroke="rgb(174,207,0)" stroke-linejoin="round" d="M 18400,4070 L 18649,4070 18400,3820 18649,3820 18400,4070 Z"/>
 <path fill="rgb(174,207,0)" stroke="none" d="M 15842,5001 L 16091,5001 15842,4751 16091,4751 15842,5001 Z"/>
 <path fill="none" stroke="rgb(174,207,0)" stroke-linejoin="round" d="M 15842,5001 L 16091,5001 15842,4751 16091,4751 15842,5001 Z"/>
 <path fill="rgb(174,207,0)" stroke="none" d="M 13298,5932 L 13546,5932 13298,5682 13546,5682 13298,5932 Z"/>
 <path fill="none" stroke="rgb(174,207,0)" stroke-linejoin="round" d="M 13298,5932 L 13546,5932 13298,5682 13546,5682 13298,5932 Z"/>
 <path fill="rgb(174,207,0)" stroke="none" d="M 10737,6864 L 10986,6864 10737,6614 10986,6614 10737,6864 Z"/>
 <path fill="none" stroke="rgb(174,207,0)" stroke-linejoin="round" d="M 10737,6864 L 10986,6864 10737,6614 10986,6614 10737,6864 Z"/>
 <path fill="rgb(174,207,0)" stroke="none" d="M 8192,7867 L 8441,7867 8192,7617 8441,7617 8192,7867 Z"/>
 <path fill="none" stroke="rgb(174,207,0)" stroke-linejoin="round" d="M 8192,7867 L 8441,7867 8192,7617 8441,7617 8192,7867 Z"/>
 <path fill="rgb(174,207,0)" stroke="none" d="M 5633,8799 L 5882,8799 5633,8549 5882,8549 5633,8799 Z"/>
 <path fill="none" stroke="rgb(174,207,0)" stroke-linejoin="round" d="M 5633,8799 L 5882,8799 5633,8549 5882,8549 5633,8799 Z"/>
 <path fill="rgb(174,207,0)" stroke="none" d="M 3088,9730 L 3337,9730 3088,9480 3337,9480 3088,9730 Z"/>
 <path fill="none" stroke="rgb(174,207,0)" stroke-linejoin="round" d="M 3088,9730 L 3337,9730 3088,9480 3337,9480 3088,9730 Z"/>
 <path fill="rgb(87,157,28)" stroke="none" d="M 20599,2709 L 20848,2709 20723,2459 20599,2709 Z"/>
 <path fill="none" stroke="rgb(87,157,28)" stroke-linejoin="round" d="M 20599,2709 L 20848,2709 20723,2459 20599,2709 Z"/>
 <path fill="rgb(87,157,28)" stroke="none" d="M 18044,3712 L 18293,3712 18168,3462 18044,3712 Z"/>
 <path fill="none" stroke="rgb(87,157,28)" stroke-linejoin="round" d="M 18044,3712 L 18293,3712 18168,3462 18044,3712 Z"/>
 <path fill="rgb(87,157,28)" stroke="none" d="M 15476,4642 L 15724,4642 15600,4392 15476,4642 Z"/>
 <path fill="none" stroke="rgb(87,157,28)" stroke-linejoin="round" d="M 15476,4642 L 15724,4642 15600,4392 15476,4642 Z"/>
 <path fill="rgb(87,157,28)" stroke="none" d="M 13433,5646 L 13682,5646 13557,5396 13433,5646 Z"/>
 <path fill="none" stroke="rgb(87,157,28)" stroke-linejoin="round" d="M 13433,5646 L 13682,5646 13557,5396 13433,5646 Z"/>
 <path fill="rgb(87,157,28)" stroke="none" d="M 10380,6577 L 10629,6577 10505,6327 10380,6577 Z"/>
 <path fill="none" stroke="rgb(87,157,28)" stroke-linejoin="round" d="M 10380,6577 L 10629,6577 10505,6327 10380,6577 Z"/>
 <path fill="rgb(87,157,28)" stroke="none" d="M 7816,7437 L 8065,7437 7940,7187 7816,7437 Z"/>
 <path fill="none" stroke="rgb(87,157,28)" stroke-linejoin="round" d="M 7816,7437 L 8065,7437 7940,7187 7816,7437 Z"/>
 <path fill="rgb(87,157,28)" stroke="none" d="M 5246,8512 L 5495,8512 5370,8262 5246,8512 Z"/>
 <path fill="none" stroke="rgb(87,157,28)" stroke-linejoin="round" d="M 5246,8512 L 5495,8512 5370,8262 5246,8512 Z"/>
 <path fill="rgb(87,157,28)" stroke="none" d="M 2683,9444 L 2931,9444 2807,9194 2683,9444 Z"/>
 <path fill="none" stroke="rgb(87,157,28)" stroke-linejoin="round" d="M 2683,9444 L 2931,9444 2807,9194 2683,9444 Z"/>
 <path fill="rgb(255,66,14)" stroke="none" d="M 20697,3945 L 20822,4070 20946,3945 20822,3820 20697,3945 Z"/>
 <path fill="none" stroke="rgb(255,66,14)" stroke-linejoin="round" d="M 20697,3945 L 20822,4070 20946,3945 20822,3820 20697,3945 Z"/>
 <path fill="rgb(255,66,14)" stroke="none" d="M 18130,4876 L 18255,5001 18379,4876 18255,4751 18130,4876 Z"/>
 <path fill="none" stroke="rgb(255,66,14)" stroke-linejoin="round" d="M 18130,4876 L 18255,5001 18379,4876 18255,4751 18130,4876 Z"/>
 <path fill="rgb(255,66,14)" stroke="none" d="M 15541,5879 L 15666,6004 15790,5879 15666,5754 15541,5879 Z"/>
 <path fill="none" stroke="rgb(255,66,14)" stroke-linejoin="round" d="M 15541,5879 L 15666,6004 15790,5879 15666,5754 15541,5879 Z"/>
 <path fill="rgb(255,66,14)" stroke="none" d="M 12982,6811 L 13107,6936 13231,6811 13107,6686 12982,6811 Z"/>
 <path fill="none" stroke="rgb(255,66,14)" stroke-linejoin="round" d="M 12982,6811 L 13107,6936 13231,6811 13107,6686 12982,6811 Z"/>
 <path fill="rgb(255,66,14)" stroke="none" d="M 10404,7814 L 10528,7939 10653,7814 10528,7689 10404,7814 Z"/>
 <path fill="none" stroke="rgb(255,66,14)" stroke-linejoin="round" d="M 10404,7814 L 10528,7939 10653,7814 10528,7689 10404,7814 Z"/>
 <path fill="rgb(255,66,14)" stroke="none" d="M 7830,8745 L 7954,8870 8079,8745 7954,8620 7830,8745 Z"/>
 <path fill="none" stroke="rgb(255,66,14)" stroke-linejoin="round" d="M 7830,8745 L 7954,8870 8079,8745 7954,8620 7830,8745 Z"/>
 <path fill="rgb(255,66,14)" stroke="none" d="M 5256,9677 L 5380,9802 5505,9677 5380,9552 5256,9677 Z"/>
 <path fill="none" stroke="rgb(255,66,14)" stroke-linejoin="round" d="M 5256,9677 L 5380,9802 5505,9677 5380,9552 5256,9677 Z"/>
 <path fill="rgb(255,66,14)" stroke="none" d="M 2703,10609 L 2827,10734 2951,10609 2827,10484 2703,10609 Z"/>
 <path fill="none" stroke="rgb(255,66,14)" stroke-linejoin="round" d="M 2703,10609 L 2827,10734 2951,10609 2827,10484 2703,10609 Z"/>
 <path fill="rgb(49,64,4)" stroke="none" d="M 22402,2100 L 22402,2350 22650,2100 22650,2350 22402,2100 Z"/>
 <path fill="none" stroke="rgb(49,64,4)" stroke-linejoin="round" d="M 22402,2100 L 22402,2350 22650,2100 22650,2350 22402,2100 Z"/>
 <path fill="rgb(49,64,4)" stroke="none" d="M 19820,3032 L 19820,3282 20068,3032 20068,3282 19820,3032 Z"/>
 <path fill="none" stroke="rgb(49,64,4)" stroke-linejoin="round" d="M 19820,3032 L 19820,3282 20068,3032 20068,3282 19820,3032 Z"/>
 <path fill="rgb(49,64,4)" stroke="none" d="M 17270,4035 L 17270,4284 17519,4035 17519,4284 17270,4035 Z"/>
 <path fill="none" stroke="rgb(49,64,4)" stroke-linejoin="round" d="M 17270,4035 L 17270,4284 17519,4035 17519,4284 17270,4035 Z"/>
 <path fill="rgb(49,64,4)" stroke="none" d="M 14688,4966 L 14688,5216 14937,4966 14937,5216 14688,4966 Z"/>
 <path fill="none" stroke="rgb(49,64,4)" stroke-linejoin="round" d="M 14688,4966 L 14688,5216 14937,4966 14937,5216 14688,4966 Z"/>
 <path fill="rgb(49,64,4)" stroke="none" d="M 12115,5897 L 12115,6147 12364,5897 12364,6147 12115,5897 Z"/>
 <path fill="none" stroke="rgb(49,64,4)" stroke-linejoin="round" d="M 12115,5897 L 12115,6147 12364,5897 12364,6147 12115,5897 Z"/>
 <path fill="rgb(49,64,4)" stroke="none" d="M 9543,6829 L 9543,7079 9792,6829 9792,7079 9543,6829 Z"/>
 <path fill="none" stroke="rgb(49,64,4)" stroke-linejoin="round" d="M 9543,6829 L 9543,7079 9792,6829 9792,7079 9543,6829 Z"/>
 <path fill="rgb(49,64,4)" stroke="none" d="M 6997,7832 L 6997,8082 7246,7832 7246,8082 6997,7832 Z"/>
 <path fill="none" stroke="rgb(49,64,4)" stroke-linejoin="round" d="M 6997,7832 L 6997,8082 7246,7832 7246,8082 6997,7832 Z"/>
 <path fill="rgb(49,64,4)" stroke="none" d="M 4396,8764 L 4396,9014 4645,8764 4645,9014 4396,8764 Z"/>
 <path fill="none" stroke="rgb(49,64,4)" stroke-linejoin="round" d="M 4396,8764 L 4396,9014 4645,8764 4645,9014 4396,8764 Z"/>
 <path fill="none" stroke="rgb(174,207,0)" stroke-width="51" stroke-linejoin="round" d="M 2369,9947 L 23110,2185"/>
 <path fill="none" stroke="rgb(87,157,28)" stroke-width="51" stroke-linejoin="round" d="M 2369,9514 L 23110,1743"/>
 <path fill="none" stroke="rgb(255,66,14)" stroke-width="51" stroke-linejoin="round" d="M 2369,10801 L 23110,3076"/>
 <path fill="none" stroke="rgb(49,64,4)" stroke-width="51" stroke-linejoin="round" d="M 2369,9730 L 23110,1978"/>
 <text class="TextShape"><tspan class="TextParagraph" font-family="Liberation Sans, sans-serif" font-size="529px" font-weight="400"><tspan class="TextPosition" x="2080" y="15562"><tspan fill="rgb(0,0,0)" stroke="none">58</tspan></tspan></tspan></text>
 <text class="TextShape"><tspan class="TextParagraph" font-family="Liberation Sans, sans-serif" font-size="529px" font-weight="400"><tspan class="TextPosition" x="3929" y="15562"><tspan fill="rgb(0,0,0)" stroke="none">58.2</tspan></tspan></tspan></text>
 <text class="TextShape"><tspan class="TextParagraph" font-family="Liberation Sans, sans-serif" font-size="529px" font-weight="400"><tspan class="TextPosition" x="6004" y="15562"><tspan fill="rgb(0,0,0)" stroke="none">58.4</tspan></tspan></tspan></text>
 <text class="TextShape"><tspan class="TextParagraph" font-family="Liberation Sans, sans-serif" font-size="529px" font-weight="400"><tspan class="TextPosition" x="8078" y="15562"><tspan fill="rgb(0,0,0)" stroke="none">58.6</tspan></tspan></tspan></text>
 <text class="TextShape"><tspan class="TextParagraph" font-family="Liberation Sans, sans-serif" font-size="529px" font-weight="400"><tspan class="TextPosition" x="10152" y="15562"><tspan fill="rgb(0,0,0)" stroke="none">58.8</tspan></tspan></tspan></text>
 <text class="TextShape"><tspan class="TextParagraph" font-family="Liberation Sans, sans-serif" font-size="529px" font-weight="400"><tspan class="TextPosition" x="12450" y="15562"><tspan fill="rgb(0,0,0)" stroke="none">59</tspan></tspan></tspan></text>
 <text class="TextShape"><tspan class="TextParagraph" font-family="Liberation Sans, sans-serif" font-size="529px" font-weight="400"><tspan class="TextPosition" x="14301" y="15562"><tspan fill="rgb(0,0,0)" stroke="none">59.2</tspan></tspan></tspan></text>
 <text class="TextShape"><tspan class="TextParagraph" font-family="Liberation Sans, sans-serif" font-size="529px" font-weight="400"><tspan class="TextPosition" x="16374" y="15562"><tspan fill="rgb(0,0,0)" stroke="none">59.4</tspan></tspan></tspan></text>
 <text class="TextShape"><tspan class="TextParagraph" font-family="Liberation Sans, sans-serif" font-size="529px" font-weight="400"><tspan class="TextPosition" x="18448" y="15562"><tspan fill="rgb(0,0,0)" stroke="none">59.6</tspan></tspan></tspan></text>
 <text class="TextShape"><tspan class="TextParagraph" font-family="Liberation Sans, sans-serif" font-size="529px" font-weight="400"><tspan class="TextPosition" x="20523" y="15562"><tspan fill="rgb(0,0,0)" stroke="none">59.8</tspan></tspan></tspan></text>
 <text class="TextShape"><tspan class="TextParagraph" font-family="Liberation Sans, sans-serif" font-size="529px" font-weight="400"><tspan class="TextPosition" x="22821" y="15562"><tspan fill="rgb(0,0,0)" stroke="none">60</tspan></tspan></tspan></text>
 <text class="TextShape"><tspan class="TextParagraph" font-family="Liberation Sans, sans-serif" font-size="529px" font-weight="400"><tspan class="TextPosition" x="962" y="15022"><tspan fill="rgb(0,0,0)" stroke="none">3160</tspan></tspan></tspan></text>
 <text class="TextShape"><tspan class="TextParagraph" font-family="Liberation Sans, sans-serif" font-size="529px" font-weight="400"><tspan class="TextPosition" x="962" y="13588"><tspan fill="rgb(0,0,0)" stroke="none">3180</tspan></tspan></tspan></text>
 <text class="TextShape"><tspan class="TextParagraph" font-family="Liberation Sans, sans-serif" font-size="529px" font-weight="400"><tspan class="TextPosition" x="962" y="12155"><tspan fill="rgb(0,0,0)" stroke="none">3200</tspan></tspan></tspan></text>
 <text class="TextShape"><tspan class="TextParagraph" font-family="Liberation Sans, sans-serif" font-size="529px" font-weight="400"><tspan class="TextPosition" x="962" y="10722"><tspan fill="rgb(0,0,0)" stroke="none">3220</tspan></tspan></tspan></text>
 <text class="TextShape"><tspan class="TextParagraph" font-family="Liberation Sans, sans-serif" font-size="529px" font-weight="400"><tspan class="TextPosition" x="962" y="9289"><tspan fill="rgb(0,0,0)" stroke="none">3240</tspan></tspan></tspan></text>
 <text class="TextShape"><tspan class="TextParagraph" font-family="Liberation Sans, sans-serif" font-size="529px" font-weight="400"><tspan class="TextPosition" x="962" y="7857"><tspan fill="rgb(0,0,0)" stroke="none">3260</tspan></tspan></tspan></text>
 <text class="TextShape"><tspan class="TextParagraph" font-family="Liberation Sans, sans-serif" font-size="529px" font-weight="400"><tspan class="TextPosition" x="962" y="6423"><tspan fill="rgb(0,0,0)" stroke="none">3280</tspan></tspan></tspan></text>
 <text class="TextShape"><tspan class="TextParagraph" font-family="Liberation Sans, sans-serif" font-size="529px" font-weight="400"><tspan class="TextPosition" x="962" y="4990"><tspan fill="rgb(0,0,0)" stroke="none">3300</tspan></tspan></tspan></text>
 <text class="TextShape"><tspan class="TextParagraph" font-family="Liberation Sans, sans-serif" font-size="529px" font-weight="400"><tspan class="TextPosition" x="962" y="3557"><tspan fill="rgb(0,0,0)" stroke="none">3320</tspan></tspan></tspan></text>
 <text class="TextShape"><tspan class="TextParagraph" font-family="Liberation Sans, sans-serif" font-size="529px" font-weight="400"><tspan class="TextPosition" x="962" y="2124"><tspan fill="rgb(0,0,0)" stroke="none">3340</tspan></tspan></tspan></text>
 <text class="TextShape"><tspan class="TextParagraph" font-family="Liberation Sans, sans-serif" font-size="529px" font-weight="400"><tspan class="TextPosition" x="962" y="691"><tspan fill="rgb(0,0,0)" stroke="none">3360</tspan></tspan></tspan></text>
 <text class="TextShape"><tspan class="TextParagraph" font-family="Liberation Sans, sans-serif" font-size="529px" font-weight="400"><tspan class="TextPosition" x="2760" y="3487"><tspan fill="rgb(119,188,101)" stroke="none">f(x) = 54.1658617752099 x + 86.6084910752734</tspan></tspan></tspan><tspan class="TextParagraph" font-family="Liberation Sans, sans-serif" font-size="529px" font-weight="400"><tspan class="TextPosition" x="2760" y="4069"><tspan fill="rgb(119,188,101)" stroke="none">R² = 0.999996348132984</tspan></tspan></tspan></text>
 <text class="TextShape"><tspan class="TextParagraph" font-family="Liberation Sans, sans-serif" font-size="529px" font-weight="400"><tspan class="TextPosition" x="2760" y="4825"><tspan fill="rgb(18,118,34)" stroke="none">f(x) = 54.2292644390225 x + 88.9802589805754</tspan></tspan></tspan><tspan class="TextParagraph" font-family="Liberation Sans, sans-serif" font-size="529px" font-weight="400"><tspan class="TextPosition" x="2760" y="5407"><tspan fill="rgb(18,118,34)" stroke="none">R² = 0.999980764416418</tspan></tspan></tspan></text>
 <text class="TextShape"><tspan class="TextParagraph" font-family="Liberation Sans, sans-serif" font-size="529px" font-weight="400"><tspan class="TextPosition" x="2469" y="1540"><tspan fill="rgb(255,128,0)" stroke="none">f(x) = 53.9098762380293 x + 89.5373987330977</tspan></tspan></tspan><tspan class="TextParagraph" font-family="Liberation Sans, sans-serif" font-size="529px" font-weight="400"><tspan class="TextPosition" x="2469" y="2122"><tspan fill="rgb(255,128,0)" stroke="none">R² = 0.999996503604266</tspan></tspan></tspan></text>
 <text class="TextShape"><tspan class="TextParagraph" font-family="Liberation Sans, sans-serif" font-size="529px" font-weight="400"><tspan class="TextPosition" x="8782" y="2262"><tspan fill="rgb(128,128,128)" stroke="none">f(x) = 54.0953067990507 x + 93.726859041471</tspan></tspan></tspan><tspan class="TextParagraph" font-family="Liberation Sans, sans-serif" font-size="529px" font-weight="400"><tspan class="TextPosition" x="8782" y="2844"><tspan fill="rgb(128,128,128)" stroke="none">R² = 0.999992922974263</tspan></tspan></tspan></text>
 <text class="TextShape"><tspan class="TextParagraph" font-family="Liberation Sans, sans-serif" font-size="635px" font-weight="400"><tspan class="TextPosition" x="7826" y="879"><tspan fill="rgb(0,0,0)" stroke="none">Measured voltage calibration</tspan></tspan></tspan></text>
 <path fill="rgb(49,64,4)" stroke="none" d="M 9154,10429 L 9154,10746 9469,10429 9469,10746 9154,10429 Z"/>
 <path fill="none" stroke="rgb(49,64,4)" stroke-linejoin="round" d="M 9154,10429 L 9154,10746 9469,10429 9469,10746 9154,10429 Z"/>
 <path fill="none" stroke="rgb(49,64,4)" stroke-width="51" stroke-linejoin="round" d="M 8914,11165 L 9710,11165"/>
 <path fill="rgb(255,66,14)" stroke="none" d="M 9154,11743 L 9312,11902 9469,11743 9312,11585 9154,11743 Z"/>
 <path fill="none" stroke="rgb(255,66,14)" stroke-linejoin="round" d="M 9154,11743 L 9312,11902 9469,11743 9312,11585 9154,11743 Z"/>
 <path fill="none" stroke="rgb(255,66,14)" stroke-width="51" stroke-linejoin="round" d="M 8914,12321 L 9710,12321"/>
 <path fill="rgb(87,157,28)" stroke="none" d="M 9154,13057 L 9469,13057 9312,12740 9154,13057 Z"/>
 <path fill="none" stroke="rgb(87,157,28)" stroke-linejoin="round" d="M 9154,13057 L 9469,13057 9312,12740 9154,13057 Z"/>
 <path fill="none" stroke="rgb(87,157,28)" stroke-width="51" stroke-linejoin="round" d="M 8914,13476 L 9710,13476"/>
 <path fill="rgb(174,207,0)" stroke="none" d="M 9154,14213 L 9469,14213 9154,13896 9469,13896 9154,14213 Z"/>
 <path fill="none" stroke="rgb(174,207,0)" stroke-linejoin="round" d="M 9154,14213 L 9469,14213 9154,13896 9469,13896 9154,14213 Z"/>
 <path fill="none" stroke="rgb(174,207,0)" stroke-width="51" stroke-linejoin="round" d="M 8914,14632 L 9710,14632"/>
 <text class="TextShape"><tspan class="TextParagraph" font-family="Liberation Sans, sans-serif" font-size="529px" font-weight="400"><tspan class="TextPosition" x="9826" y="10772"><tspan fill="rgb(0,0,0)" stroke="none">slave measured without load, bar no. 10 U[bit]</tspan></tspan></tspan></text>
 <text class="TextShape"><tspan class="TextParagraph" font-family="Liberation Sans, sans-serif" font-size="529px" font-weight="400"><tspan class="TextPosition" x="9826" y="11350"><tspan fill="rgb(0,0,0)" stroke="none">Linear (slave measured without load, bar no. 10 U[bit])</tspan></tspan></tspan></text>
 <text class="TextShape"><tspan class="TextParagraph" font-family="Liberation Sans, sans-serif" font-size="529px" font-weight="400"><tspan class="TextPosition" x="9826" y="11928"><tspan fill="rgb(0,0,0)" stroke="none">master measured without load, bar no. 10 U[bit]</tspan></tspan></tspan></text>
 <text class="TextShape"><tspan class="TextParagraph" font-family="Liberation Sans, sans-serif" font-size="529px" font-weight="400"><tspan class="TextPosition" x="9826" y="12505"><tspan fill="rgb(0,0,0)" stroke="none">Linear (master measured without load, bar no. 10 U[bit])</tspan></tspan></tspan></text>
 <text class="TextShape"><tspan class="TextParagraph" font-family="Liberation Sans, sans-serif" font-size="529px" font-weight="400"><tspan class="TextPosition" x="9826" y="13083"><tspan fill="rgb(0,0,0)" stroke="none">master measured without load, bar no. 12 U[bit]</tspan></tspan></tspan></text>
 <text class="TextShape"><tspan class="TextParagraph" font-family="Liberation Sans, sans-serif" font-size="529px" font-weight="400"><tspan class="TextPosition" x="9826" y="13661"><tspan fill="rgb(0,0,0)" stroke="none">Linear (master measured without load, bar no. 12 U[bit])</tspan></tspan></tspan></text>
 <text class="TextShape"><tspan class="TextParagraph" font-family="Liberation Sans, sans-serif" font-size="529px" font-weight="400"><tspan class="TextPosition" x="9826" y="14239"><tspan fill="rgb(0,0,0)" stroke="none">slave measured, without load, bar no. 12  U[bit]</tspan></tspan></tspan></text>
 <text class="TextShape"><tspan class="TextParagraph" font-family="Liberation Sans, sans-serif" font-size="529px" font-weight="400"><tspan class="TextPosition" x="9826" y="14817"><tspan fill="rgb(0,0,0)" stroke="none">Linear (slave measured, without load, bar no. 12  U[bit])</tspan></tspan></tspan></text>
 <text class="TextShape"><tspan class="TextParagraph" font-family="Liberation Sans, sans-serif" font-size="635px" font-weight="400"><tspan class="TextPosition" x="11470" y="16121"><tspan fill="rgb(0,0,0)" stroke="none">U [V]</tspan></tspan></tspan></text>
 <text class="TextShape" transform="rotate(-90 770 8775)"><tspan class="TextParagraph" font-family="Liberation Sans, sans-serif" font-size="632px" font-weight="400"><tspan class="TextPosition" x="770" y="8775"><tspan fill="rgb(0,0,0)" stroke="none">U [bit]</tspan></tspan></tspan></text>
</svg>