<?xml version="1.0" encoding="UTF-8"?>
<!DOCTYPE svg PUBLIC "-//W3C//DTD SVG 1.1//EN" "http://www.w3.org/Graphics/SVG/1.1/DTD/svg11.dtd">
<svg width="257mm" height="190mm" viewBox="0 0 25700 19000" version="1.1" xmlns="http://www.w3.org/2000/svg" xmlns:xlink="http://www.w3.org/1999/xlink" stroke-width="28.222" stroke-linejoin="round" xml:space="preserve">
 <path fill="rgb(255,255,255)" stroke="none" d="M 12861,18964 L 0,18964 0,0 25721,0 25721,18964 12861,18964 Z"/>
 <path fill="none" stroke="rgb(179,179,179)" stroke-linejoin="round" d="M 13443,17028 L 2059,17028 2059,387 24828,387 24828,17028 13443,17028 Z"/>
 <path fill="none" stroke="rgb(179,179,179)" stroke-linejoin="round" d="M 2059,386 L 2059,17027"/>
 <path fill="none" stroke="rgb(179,179,179)" stroke-linejoin="round" d="M 4336,386 L 4336,17027"/>
 <path fill="none" stroke="rgb(179,179,179)" stroke-linejoin="round" d="M 6613,386 L 6613,17027"/>
 <path fill="none" stroke="rgb(179,179,179)" stroke-linejoin="round" d="M 8890,386 L 8890,17027"/>
 <path fill="none" stroke="rgb(179,179,179)" stroke-linejoin="round" d="M 11167,386 L 11167,17027"/>
 <path fill="none" stroke="rgb(179,179,179)" stroke-linejoin="round" d="M 13443,386 L 13443,17027"/>
 <path fill="none" stroke="rgb(179,179,179)" stroke-linejoin="round" d="M 15720,386 L 15720,17027"/>
 <path fill="none" stroke="rgb(179,179,179)" stroke-linejoin="round" d="M 17997,386 L 17997,17027"/>
 <path fill="none" stroke="rgb(179,179,179)" stroke-linejoin="round" d="M 20274,386 L 20274,17027"/>
 <path fill="none" stroke="rgb(179,179,179)" stroke-linejoin="round" d="M 22551,386 L 22551,17027"/>
 <path fill="none" stroke="rgb(179,179,179)" stroke-linejoin="round" d="M 24828,386 L 24828,17027"/>
 <path fill="none" stroke="rgb(221,221,221)" stroke-linejoin="round" d="M 3197,386 L 3197,17027"/>
 <path fill="none" stroke="rgb(221,221,221)" stroke-linejoin="round" d="M 5474,386 L 5474,17027"/>
 <path fill="none" stroke="rgb(221,221,221)" stroke-linejoin="round" d="M 7751,386 L 7751,17027"/>
 <path fill="none" stroke="rgb(221,221,221)" stroke-linejoin="round" d="M 10028,386 L 10028,17027"/>
 <path fill="none" stroke="rgb(221,221,221)" stroke-linejoin="round" d="M 12305,386 L 12305,17027"/>
 <path fill="none" stroke="rgb(221,221,221)" stroke-linejoin="round" d="M 14581,386 L 14581,17027"/>
 <path fill="none" stroke="rgb(221,221,221)" stroke-linejoin="round" d="M 16858,386 L 16858,17027"/>
 <path fill="none" stroke="rgb(221,221,221)" stroke-linejoin="round" d="M 19135,386 L 19135,17027"/>
 <path fill="none" stroke="rgb(221,221,221)" stroke-linejoin="round" d="M 21412,386 L 21412,17027"/>
 <path fill="none" stroke="rgb(221,221,221)" stroke-linejoin="round" d="M 23689,386 L 23689,17027"/>
 <path fill="none" stroke="rgb(179,179,179)" stroke-linejoin="round" d="M 24828,17027 L 2059,17027"/>
 <path fill="none" stroke="rgb(179,179,179)" stroke-linejoin="round" d="M 24828,14649 L 2059,14649"/>
 <path fill="none" stroke="rgb(179,179,179)" stroke-linejoin="round" d="M 24828,12272 L 2059,12272"/>
 <path fill="none" stroke="rgb(179,179,179)" stroke-linejoin="round" d="M 24828,9895 L 2059,9895"/>
 <path fill="none" stroke="rgb(179,179,179)" stroke-linejoin="round" d="M 24828,7517 L 2059,7517"/>
 <path fill="none" stroke="rgb(179,179,179)" stroke-linejoin="round" d="M 24828,5140 L 2059,5140"/>
 <path fill="none" stroke="rgb(179,179,179)" stroke-linejoin="round" d="M 24828,2763 L 2059,2763"/>
 <path fill="none" stroke="rgb(179,179,179)" stroke-linejoin="round" d="M 24828,386 L 2059,386"/>
 <path fill="none" stroke="rgb(221,221,221)" stroke-linejoin="round" d="M 24828,15838 L 2059,15838"/>
 <path fill="none" stroke="rgb(221,221,221)" stroke-linejoin="round" d="M 24828,13461 L 2059,13461"/>
 <path fill="none" stroke="rgb(221,221,221)" stroke-linejoin="round" d="M 24828,11084 L 2059,11084"/>
 <path fill="none" stroke="rgb(221,221,221)" stroke-linejoin="round" d="M 24828,8706 L 2059,8706"/>
 <path fill="none" stroke="rgb(221,221,221)" stroke-linejoin="round" d="M 24828,6328 L 2059,6328"/>
 <path fill="none" stroke="rgb(221,221,221)" stroke-linejoin="round" d="M 24828,3952 L 2059,3952"/>
 <path fill="none" stroke="rgb(221,221,221)" stroke-linejoin="round" d="M 24828,1574 L 2059,1574"/>
 <path fill="none" stroke="rgb(179,179,179)" stroke-linejoin="round" d="M 2059,17177 L 2059,17027"/>
 <path fill="none" stroke="rgb(179,179,179)" stroke-linejoin="round" d="M 2059,17177 L 2059,17027"/>
 <path fill="none" stroke="rgb(179,179,179)" stroke-linejoin="round" d="M 4336,17177 L 4336,17027"/>
 <path fill="none" stroke="rgb(179,179,179)" stroke-linejoin="round" d="M 4336,17177 L 4336,17027"/>
 <path fill="none" stroke="rgb(179,179,179)" stroke-linejoin="round" d="M 6613,17177 L 6613,17027"/>
 <path fill="none" stroke="rgb(179,179,179)" stroke-linejoin="round" d="M 6613,17177 L 6613,17027"/>
 <path fill="none" stroke="rgb(179,179,179)" stroke-linejoin="round" d="M 8890,17177 L 8890,17027"/>
 <path fill="none" stroke="rgb(179,179,179)" stroke-linejoin="round" d="M 8890,17177 L 8890,17027"/>
 <path fill="none" stroke="rgb(179,179,179)" stroke-linejoin="round" d="M 11167,17177 L 11167,17027"/>
 <path fill="none" stroke="rgb(179,179,179)" stroke-linejoin="round" d="M 11167,17177 L 11167,17027"/>
 <path fill="none" stroke="rgb(179,179,179)" stroke-linejoin="round" d="M 13443,17177 L 13443,17027"/>
 <path fill="none" stroke="rgb(179,179,179)" stroke-linejoin="round" d="M 13443,17177 L 13443,17027"/>
 <path fill="none" stroke="rgb(179,179,179)" stroke-linejoin="round" d="M 15720,17177 L 15720,17027"/>
 <path fill="none" stroke="rgb(179,179,179)" stroke-linejoin="round" d="M 15720,17177 L 15720,17027"/>
 <path fill="none" stroke="rgb(179,179,179)" stroke-linejoin="round" d="M 17997,17177 L 17997,17027"/>
 <path fill="none" stroke="rgb(179,179,179)" stroke-linejoin="round" d="M 17997,17177 L 17997,17027"/>
 <path fill="none" stroke="rgb(179,179,179)" stroke-linejoin="round" d="M 20274,17177 L 20274,17027"/>
 <path fill="none" stroke="rgb(179,179,179)" stroke-linejoin="round" d="M 20274,17177 L 20274,17027"/>
 <path fill="none" stroke="rgb(179,179,179)" stroke-linejoin="round" d="M 22551,17177 L 22551,17027"/>
 <path fill="none" stroke="rgb(179,179,179)" stroke-linejoin="round" d="M 22551,17177 L 22551,17027"/>
 <path fill="none" stroke="rgb(179,179,179)" stroke-linejoin="round" d="M 24828,17177 L 24828,17027"/>
 <path fill="none" stroke="rgb(179,179,179)" stroke-linejoin="round" d="M 24828,17177 L 24828,17027"/>
 <path fill="none" stroke="rgb(179,179,179)" stroke-linejoin="round" d="M 3197,17139 L 3197,17027"/>
 <path fill="none" stroke="rgb(179,179,179)" stroke-linejoin="round" d="M 3197,17139 L 3197,17027"/>
 <path fill="none" stroke="rgb(179,179,179)" stroke-linejoin="round" d="M 5474,17139 L 5474,17027"/>
 <path fill="none" stroke="rgb(179,179,179)" stroke-linejoin="round" d="M 5474,17139 L 5474,17027"/>
 <path fill="none" stroke="rgb(179,179,179)" stroke-linejoin="round" d="M 7751,17139 L 7751,17027"/>
 <path fill="none" stroke="rgb(179,179,179)" stroke-linejoin="round" d="M 7751,17139 L 7751,17027"/>
 <path fill="none" stroke="rgb(179,179,179)" stroke-linejoin="round" d="M 10028,17139 L 10028,17027"/>
 <path fill="none" stroke="rgb(179,179,179)" stroke-linejoin="round" d="M 10028,17139 L 10028,17027"/>
 <path fill="none" stroke="rgb(179,179,179)" stroke-linejoin="round" d="M 12305,17139 L 12305,17027"/>
 <path fill="none" stroke="rgb(179,179,179)" stroke-linejoin="round" d="M 12305,17139 L 12305,17027"/>
 <path fill="none" stroke="rgb(179,179,179)" stroke-linejoin="round" d="M 14581,17139 L 14581,17027"/>
 <path fill="none" stroke="rgb(179,179,179)" stroke-linejoin="round" d="M 14581,17139 L 14581,17027"/>
 <path fill="none" stroke="rgb(179,179,179)" stroke-linejoin="round" d="M 16858,17139 L 16858,17027"/>
 <path fill="none" stroke="rgb(179,179,179)" stroke-linejoin="round" d="M 16858,17139 L 16858,17027"/>
 <path fill="none" stroke="rgb(179,179,179)" stroke-linejoin="round" d="M 19135,17139 L 19135,17027"/>
 <path fill="none" stroke="rgb(179,179,179)" stroke-linejoin="round" d="M 19135,17139 L 19135,17027"/>
 <path fill="none" stroke="rgb(179,179,179)" stroke-linejoin="round" d="M 21412,17139 L 21412,17027"/>
 <path fill="none" stroke="rgb(179,179,179)" stroke-linejoin="round" d="M 21412,17139 L 21412,17027"/>
 <path fill="none" stroke="rgb(179,179,179)" stroke-linejoin="round" d="M 23689,17139 L 23689,17027"/>
 <path fill="none" stroke="rgb(179,179,179)" stroke-linejoin="round" d="M 23689,17139 L 23689,17027"/>
 <path fill="none" stroke="rgb(179,179,179)" stroke-linejoin="round" d="M 2059,17027 L 24828,17027"/>
 <path fill="none" stroke="rgb(179,179,179)" stroke-linejoin="round" d="M 2059,17027 L 2209,17027"/>
 <path fill="none" stroke="rgb(179,179,179)" stroke-linejoin="round" d="M 2059,17027 L 2209,17027"/>
 <path fill="none" stroke="rgb(179,179,179)" stroke-linejoin="round" d="M 2059,14649 L 2209,14649"/>
 <path fill="none" stroke="rgb(179,179,179)" stroke-linejoin="round" d="M 2059,14649 L 2209,14649"/>
 <path fill="none" stroke="rgb(179,179,179)" stroke-linejoin="round" d="M 2059,12272 L 2209,12272"/>
 <path fill="none" stroke="rgb(179,179,179)" stroke-linejoin="round" d="M 2059,12272 L 2209,12272"/>
 <path fill="none" stroke="rgb(179,179,179)" stroke-linejoin="round" d="M 2059,9895 L 2209,9895"/>
 <path fill="none" stroke="rgb(179,179,179)" stroke-linejoin="round" d="M 2059,9895 L 2209,9895"/>
 <path fill="none" stroke="rgb(179,179,179)" stroke-linejoin="round" d="M 2059,7517 L 2209,7517"/>
 <path fill="none" stroke="rgb(179,179,179)" stroke-linejoin="round" d="M 2059,7517 L 2209,7517"/>
 <path fill="none" stroke="rgb(179,179,179)" stroke-linejoin="round" d="M 2059,5140 L 2209,5140"/>
 <path fill="none" stroke="rgb(179,179,179)" stroke-linejoin="round" d="M 2059,5140 L 2209,5140"/>
 <path fill="none" stroke="rgb(179,179,179)" stroke-linejoin="round" d="M 2059,2763 L 2209,2763"/>
 <path fill="none" stroke="rgb(179,179,179)" stroke-linejoin="round" d="M 2059,2763 L 2209,2763"/>
 <path fill="none" stroke="rgb(179,179,179)" stroke-linejoin="round" d="M 2059,386 L 2209,386"/>
 <path fill="none" stroke="rgb(179,179,179)" stroke-linejoin="round" d="M 2059,386 L 2209,386"/>
 <path fill="none" stroke="rgb(179,179,179)" stroke-linejoin="round" d="M 2059,15838 L 2171,15838"/>
 <path fill="none" stroke="rgb(179,179,179)" stroke-linejoin="round" d="M 2059,15838 L 2171,15838"/>
 <path fill="none" stroke="rgb(179,179,179)" stroke-linejoin="round" d="M 2059,13461 L 2171,13461"/>
 <path fill="none" stroke="rgb(179,179,179)" stroke-linejoin="round" d="M 2059,13461 L 2171,13461"/>
 <path fill="none" stroke="rgb(179,179,179)" stroke-linejoin="round" d="M 2059,11084 L 2171,11084"/>
 <path fill="none" stroke="rgb(179,179,179)" stroke-linejoin="round" d="M 2059,11084 L 2171,11084"/>
 <path fill="none" stroke="rgb(179,179,179)" stroke-linejoin="round" d="M 2059,8706 L 2171,8706"/>
 <path fill="none" stroke="rgb(179,179,179)" stroke-linejoin="round" d="M 2059,8706 L 2171,8706"/>
 <path fill="none" stroke="rgb(179,179,179)" stroke-linejoin="round" d="M 2059,6328 L 2171,6328"/>
 <path fill="none" stroke="rgb(179,179,179)" stroke-linejoin="round" d="M 2059,6328 L 2171,6328"/>
 <path fill="none" stroke="rgb(179,179,179)" stroke-linejoin="round" d="M 2059,3952 L 2171,3952"/>
 <path fill="none" stroke="rgb(179,179,179)" stroke-linejoin="round" d="M 2059,3952 L 2171,3952"/>
 <path fill="none" stroke="rgb(179,179,179)" stroke-linejoin="round" d="M 2059,1574 L 2171,1574"/>
 <path fill="none" stroke="rgb(179,179,179)" stroke-linejoin="round" d="M 2059,1574 L 2171,1574"/>
 <path fill="none" stroke="rgb(179,179,179)" stroke-linejoin="round" d="M 2059,17027 L 2059,386"/>
 <path fill="rgb(174,207,0)" stroke="none" d="M 3026,2648 L 3276,2648 3026,2398 3276,2398 3026,2648 Z"/>
 <path fill="none" stroke="rgb(174,207,0)" stroke-linejoin="round" d="M 3026,2648 L 3276,2648 3026,2398 3276,2398 3026,2648 Z"/>
 <path fill="rgb(174,207,0)" stroke="none" d="M 5941,3823 L 6191,3823 5941,3573 6191,3573 5941,3823 Z"/>
 <path fill="none" stroke="rgb(174,207,0)" stroke-linejoin="round" d="M 5941,3823 L 6191,3823 5941,3573 6191,3573 5941,3823 Z"/>
 <path fill="rgb(174,207,0)" stroke="none" d="M 8856,4989 L 9106,4989 8856,4740 9106,4740 8856,4989 Z"/>
 <path fill="none" stroke="rgb(174,207,0)" stroke-linejoin="round" d="M 8856,4989 L 9106,4989 8856,4740 9106,4740 8856,4989 Z"/>
 <path fill="rgb(174,207,0)" stroke="none" d="M 11770,6162 L 12020,6162 11770,5912 12020,5912 11770,6162 Z"/>
 <path fill="none" stroke="rgb(174,207,0)" stroke-linejoin="round" d="M 11770,6162 L 12020,6162 11770,5912 12020,5912 11770,6162 Z"/>
 <path fill="rgb(174,207,0)" stroke="none" d="M 14684,7329 L 14934,7329 14684,7079 14934,7079 14684,7329 Z"/>
 <path fill="none" stroke="rgb(174,207,0)" stroke-linejoin="round" d="M 14684,7329 L 14934,7329 14684,7079 14934,7079 14684,7329 Z"/>
 <path fill="rgb(174,207,0)" stroke="none" d="M 17598,8503 L 17848,8503 17598,8253 17848,8253 17598,8503 Z"/>
 <path fill="none" stroke="rgb(174,207,0)" stroke-linejoin="round" d="M 17598,8503 L 17848,8503 17598,8253 17848,8253 17598,8503 Z"/>
 <path fill="rgb(174,207,0)" stroke="none" d="M 20513,9670 L 20763,9670 20513,9420 20763,9420 20513,9670 Z"/>
 <path fill="none" stroke="rgb(174,207,0)" stroke-linejoin="round" d="M 20513,9670 L 20763,9670 20513,9420 20763,9420 20513,9670 Z"/>
 <path fill="rgb(174,207,0)" stroke="none" d="M 23427,10843 L 23677,10843 23427,10593 23677,10593 23427,10843 Z"/>
 <path fill="none" stroke="rgb(174,207,0)" stroke-linejoin="round" d="M 23427,10843 L 23677,10843 23427,10593 23677,10593 23427,10843 Z"/>
 <path fill="rgb(131,202,255)" stroke="none" d="M 3026,5383 L 3276,5508 3276,5258 3026,5383 Z"/>
 <path fill="none" stroke="rgb(131,202,255)" stroke-linejoin="round" d="M 3026,5383 L 3276,5508 3276,5258 3026,5383 Z"/>
 <path fill="rgb(131,202,255)" stroke="none" d="M 5941,6567 L 6191,6692 6191,6442 5941,6567 Z"/>
 <path fill="none" stroke="rgb(131,202,255)" stroke-linejoin="round" d="M 5941,6567 L 6191,6692 6191,6442 5941,6567 Z"/>
 <path fill="rgb(131,202,255)" stroke="none" d="M 8856,7746 L 9106,7871 9106,7621 8856,7746 Z"/>
 <path fill="none" stroke="rgb(131,202,255)" stroke-linejoin="round" d="M 8856,7746 L 9106,7871 9106,7621 8856,7746 Z"/>
 <path fill="rgb(131,202,255)" stroke="none" d="M 11770,8926 L 12020,9051 12020,8801 11770,8926 Z"/>
 <path fill="none" stroke="rgb(131,202,255)" stroke-linejoin="round" d="M 11770,8926 L 12020,9051 12020,8801 11770,8926 Z"/>
 <path fill="rgb(131,202,255)" stroke="none" d="M 14684,10093 L 14934,10218 14934,9968 14684,10093 Z"/>
 <path fill="none" stroke="rgb(131,202,255)" stroke-linejoin="round" d="M 14684,10093 L 14934,10218 14934,9968 14684,10093 Z"/>
 <path fill="rgb(131,202,255)" stroke="none" d="M 17598,11286 L 17848,11411 17848,11161 17598,11286 Z"/>
 <path fill="none" stroke="rgb(131,202,255)" stroke-linejoin="round" d="M 17598,11286 L 17848,11411 17848,11161 17598,11286 Z"/>
 <path fill="rgb(131,202,255)" stroke="none" d="M 20513,12469 L 20763,12594 20763,12344 20513,12469 Z"/>
 <path fill="none" stroke="rgb(131,202,255)" stroke-linejoin="round" d="M 20513,12469 L 20763,12594 20763,12344 20513,12469 Z"/>
 <path fill="rgb(131,202,255)" stroke="none" d="M 23427,13653 L 23677,13778 23677,13528 23427,13653 Z"/>
 <path fill="none" stroke="rgb(131,202,255)" stroke-linejoin="round" d="M 23427,13653 L 23677,13778 23677,13528 23427,13653 Z"/>
 <path fill="rgb(87,157,28)" stroke="none" d="M 3026,3982 L 3276,3982 3151,3732 3026,3982 Z"/>
 <path fill="none" stroke="rgb(87,157,28)" stroke-linejoin="round" d="M 3026,3982 L 3276,3982 3151,3732 3026,3982 Z"/>
 <path fill="rgb(87,157,28)" stroke="none" d="M 5941,5153 L 6191,5153 6066,4903 5941,5153 Z"/>
 <path fill="none" stroke="rgb(87,157,28)" stroke-linejoin="round" d="M 5941,5153 L 6191,5153 6066,4903 5941,5153 Z"/>
 <path fill="rgb(87,157,28)" stroke="none" d="M 8856,6330 L 9106,6330 8981,6080 8856,6330 Z"/>
 <path fill="none" stroke="rgb(87,157,28)" stroke-linejoin="round" d="M 8856,6330 L 9106,6330 8981,6080 8856,6330 Z"/>
 <path fill="rgb(87,157,28)" stroke="none" d="M 11770,7267 L 12020,7267 11895,7017 11770,7267 Z"/>
 <path fill="none" stroke="rgb(87,157,28)" stroke-linejoin="round" d="M 11770,7267 L 12020,7267 11895,7017 11770,7267 Z"/>
 <path fill="rgb(87,157,28)" stroke="none" d="M 14684,8667 L 14934,8667 14809,8417 14684,8667 Z"/>
 <path fill="none" stroke="rgb(87,157,28)" stroke-linejoin="round" d="M 14684,8667 L 14934,8667 14809,8417 14684,8667 Z"/>
 <path fill="rgb(87,157,28)" stroke="none" d="M 17598,9842 L 17848,9842 17723,9592 17598,9842 Z"/>
 <path fill="none" stroke="rgb(87,157,28)" stroke-linejoin="round" d="M 17598,9842 L 17848,9842 17723,9592 17598,9842 Z"/>
 <path fill="rgb(87,157,28)" stroke="none" d="M 20513,11021 L 20763,11021 20638,10771 20513,11021 Z"/>
 <path fill="none" stroke="rgb(87,157,28)" stroke-linejoin="round" d="M 20513,11021 L 20763,11021 20638,10771 20513,11021 Z"/>
 <path fill="rgb(87,157,28)" stroke="none" d="M 23427,12196 L 23677,12196 23552,11946 23427,12196 Z"/>
 <path fill="none" stroke="rgb(87,157,28)" stroke-linejoin="round" d="M 23427,12196 L 23677,12196 23552,11946 23427,12196 Z"/>
 <path fill="rgb(255,66,14)" stroke="none" d="M 3026,2634 L 3151,2759 3276,2634 3151,2509 3026,2634 Z"/>
 <path fill="none" stroke="rgb(255,66,14)" stroke-linejoin="round" d="M 3026,2634 L 3151,2759 3276,2634 3151,2509 3026,2634 Z"/>
 <path fill="rgb(255,66,14)" stroke="none" d="M 5941,3812 L 6066,3937 6191,3812 6066,3687 5941,3812 Z"/>
 <path fill="none" stroke="rgb(255,66,14)" stroke-linejoin="round" d="M 5941,3812 L 6066,3937 6191,3812 6066,3687 5941,3812 Z"/>
 <path fill="rgb(255,66,14)" stroke="none" d="M 8856,4988 L 8981,5113 9106,4988 8981,4863 8856,4988 Z"/>
 <path fill="none" stroke="rgb(255,66,14)" stroke-linejoin="round" d="M 8856,4988 L 8981,5113 9106,4988 8981,4863 8856,4988 Z"/>
 <path fill="rgb(255,66,14)" stroke="none" d="M 11770,6175 L 11895,6300 12020,6175 11895,6050 11770,6175 Z"/>
 <path fill="none" stroke="rgb(255,66,14)" stroke-linejoin="round" d="M 11770,6175 L 11895,6300 12020,6175 11895,6050 11770,6175 Z"/>
 <path fill="rgb(255,66,14)" stroke="none" d="M 14684,7349 L 14809,7474 14934,7349 14809,7224 14684,7349 Z"/>
 <path fill="none" stroke="rgb(255,66,14)" stroke-linejoin="round" d="M 14684,7349 L 14809,7474 14934,7349 14809,7224 14684,7349 Z"/>
 <path fill="rgb(255,66,14)" stroke="none" d="M 17598,8531 L 17723,8656 17848,8531 17723,8406 17598,8531 Z"/>
 <path fill="none" stroke="rgb(255,66,14)" stroke-linejoin="round" d="M 17598,8531 L 17723,8656 17848,8531 17723,8406 17598,8531 Z"/>
 <path fill="rgb(255,66,14)" stroke="none" d="M 20513,9711 L 20638,9836 20763,9711 20638,9586 20513,9711 Z"/>
 <path fill="none" stroke="rgb(255,66,14)" stroke-linejoin="round" d="M 20513,9711 L 20638,9836 20763,9711 20638,9586 20513,9711 Z"/>
 <path fill="rgb(255,66,14)" stroke="none" d="M 23427,10891 L 23552,11016 23677,10891 23552,10766 23427,10891 Z"/>
 <path fill="none" stroke="rgb(255,66,14)" stroke-linejoin="round" d="M 23427,10891 L 23552,11016 23677,10891 23552,10766 23427,10891 Z"/>
 <path fill="none" stroke="rgb(174,207,0)" stroke-width="51" stroke-linejoin="round" d="M 2059,2087 L 24828,11236"/>
 <path fill="none" stroke="rgb(131,202,255)" stroke-width="51" stroke-linejoin="round" d="M 2059,4946 L 24828,14167"/>
 <path fill="none" stroke="rgb(87,157,28)" stroke-width="51" stroke-linejoin="round" d="M 2059,3382 L 24828,12543"/>
 <path fill="none" stroke="rgb(255,66,14)" stroke-width="51" stroke-linejoin="round" d="M 2059,2190 L 24828,11407"/>
 <text class="TextShape"><tspan class="TextParagraph" font-family="Liberation Sans, sans-serif" font-size="529px" font-weight="400"><tspan class="TextPosition" x="1477" y="17753"><tspan fill="rgb(0,0,0)" stroke="none">1000</tspan></tspan></tspan></text>
 <text class="TextShape"><tspan class="TextParagraph" font-family="Liberation Sans, sans-serif" font-size="529px" font-weight="400"><tspan class="TextPosition" x="3754" y="17753"><tspan fill="rgb(0,0,0)" stroke="none">1050</tspan></tspan></tspan></text>
 <text class="TextShape"><tspan class="TextParagraph" font-family="Liberation Sans, sans-serif" font-size="529px" font-weight="400"><tspan class="TextPosition" x="6031" y="17753"><tspan fill="rgb(0,0,0)" stroke="none">1100</tspan></tspan></tspan></text>
 <text class="TextShape"><tspan class="TextParagraph" font-family="Liberation Sans, sans-serif" font-size="529px" font-weight="400"><tspan class="TextPosition" x="8308" y="17753"><tspan fill="rgb(0,0,0)" stroke="none">1150</tspan></tspan></tspan></text>
 <text class="TextShape"><tspan class="TextParagraph" font-family="Liberation Sans, sans-serif" font-size="529px" font-weight="400"><tspan class="TextPosition" x="10585" y="17753"><tspan fill="rgb(0,0,0)" stroke="none">1200</tspan></tspan></tspan></text>
 <text class="TextShape"><tspan class="TextParagraph" font-family="Liberation Sans, sans-serif" font-size="529px" font-weight="400"><tspan class="TextPosition" x="12862" y="17753"><tspan fill="rgb(0,0,0)" stroke="none">1250</tspan></tspan></tspan></text>
 <text class="TextShape"><tspan class="TextParagraph" font-family="Liberation Sans, sans-serif" font-size="529px" font-weight="400"><tspan class="TextPosition" x="15139" y="17753"><tspan fill="rgb(0,0,0)" stroke="none">1300</tspan></tspan></tspan></text>
 <text class="TextShape"><tspan class="TextParagraph" font-family="Liberation Sans, sans-serif" font-size="529px" font-weight="400"><tspan class="TextPosition" x="17416" y="17753"><tspan fill="rgb(0,0,0)" stroke="none">1350</tspan></tspan></tspan></text>
 <text class="TextShape"><tspan class="TextParagraph" font-family="Liberation Sans, sans-serif" font-size="529px" font-weight="400"><tspan class="TextPosition" x="19693" y="17753"><tspan fill="rgb(0,0,0)" stroke="none">1400</tspan></tspan></tspan></text>
 <text class="TextShape"><tspan class="TextParagraph" font-family="Liberation Sans, sans-serif" font-size="529px" font-weight="400"><tspan class="TextPosition" x="21970" y="17753"><tspan fill="rgb(0,0,0)" stroke="none">1450</tspan></tspan></tspan></text>
 <text class="TextShape"><tspan class="TextParagraph" font-family="Liberation Sans, sans-serif" font-size="529px" font-weight="400"><tspan class="TextPosition" x="24247" y="17753"><tspan fill="rgb(0,0,0)" stroke="none">1500</tspan></tspan></tspan></text>
 <text class="TextShape"><tspan class="TextParagraph" font-family="Liberation Sans, sans-serif" font-size="529px" font-weight="400"><tspan class="TextPosition" x="1377" y="17213"><tspan fill="rgb(0,0,0)" stroke="none">57</tspan></tspan></tspan></text>
 <text class="TextShape"><tspan class="TextParagraph" font-family="Liberation Sans, sans-serif" font-size="529px" font-weight="400"><tspan class="TextPosition" x="927" y="14835"><tspan fill="rgb(0,0,0)" stroke="none">57.5</tspan></tspan></tspan></text>
 <text class="TextShape"><tspan class="TextParagraph" font-family="Liberation Sans, sans-serif" font-size="529px" font-weight="400"><tspan class="TextPosition" x="1377" y="12457"><tspan fill="rgb(0,0,0)" stroke="none">58</tspan></tspan></tspan></text>
 <text class="TextShape"><tspan class="TextParagraph" font-family="Liberation Sans, sans-serif" font-size="529px" font-weight="400"><tspan class="TextPosition" x="927" y="10080"><tspan fill="rgb(0,0,0)" stroke="none">58.5</tspan></tspan></tspan></text>
 <text class="TextShape"><tspan class="TextParagraph" font-family="Liberation Sans, sans-serif" font-size="529px" font-weight="400"><tspan class="TextPosition" x="1377" y="7703"><tspan fill="rgb(0,0,0)" stroke="none">59</tspan></tspan></tspan></text>
 <text class="TextShape"><tspan class="TextParagraph" font-family="Liberation Sans, sans-serif" font-size="529px" font-weight="400"><tspan class="TextPosition" x="927" y="5326"><tspan fill="rgb(0,0,0)" stroke="none">59.5</tspan></tspan></tspan></text>
 <text class="TextShape"><tspan class="TextParagraph" font-family="Liberation Sans, sans-serif" font-size="529px" font-weight="400"><tspan class="TextPosition" x="1377" y="2948"><tspan fill="rgb(0,0,0)" stroke="none">60</tspan></tspan></tspan></text>
 <text class="TextShape"><tspan class="TextParagraph" font-family="Liberation Sans, sans-serif" font-size="529px" font-weight="400"><tspan class="TextPosition" x="927" y="571"><tspan fill="rgb(0,0,0)" stroke="none">60.5</tspan></tspan></tspan></text>
 <text class="TextShape"><tspan class="TextParagraph" font-family="Liberation Sans, sans-serif" font-size="529px" font-weight="400"><tspan class="TextPosition" x="12983" y="5251"><tspan fill="rgb(119,188,101)" stroke="none">f(x) = − 0.003848681751876 x + 63.9908747105678</tspan></tspan></tspan><tspan class="TextParagraph" font-family="Liberation Sans, sans-serif" font-size="529px" font-weight="400"><tspan class="TextPosition" x="12983" y="5833"><tspan fill="rgb(119,188,101)" stroke="none">R² = 0.999999918778623</tspan></tspan></tspan></text>
 <text class="TextShape"><tspan class="TextParagraph" font-family="Liberation Sans, sans-serif" font-size="529px" font-weight="400"><tspan class="TextPosition" x="9638" y="3887"><tspan fill="rgb(131,202,255)" stroke="none">f(x) = − 0.003878180570992 x + 63.4187989209966</tspan></tspan></tspan><tspan class="TextParagraph" font-family="Liberation Sans, sans-serif" font-size="529px" font-weight="400"><tspan class="TextPosition" x="9638" y="4469"><tspan fill="rgb(131,202,255)" stroke="none">R² = 0.99999988470344</tspan></tspan></tspan></text>
 <text class="TextShape"><tspan class="TextParagraph" font-family="Liberation Sans, sans-serif" font-size="529px" font-weight="400"><tspan class="TextPosition" x="11405" y="2626"><tspan fill="rgb(18,118,34)" stroke="none">f(x) = − 0.003853541825854 x + 63.7233686644438</tspan></tspan></tspan><tspan class="TextParagraph" font-family="Liberation Sans, sans-serif" font-size="529px" font-weight="400"><tspan class="TextPosition" x="11405" y="3208"><tspan fill="rgb(18,118,34)" stroke="none">R² = 0.999981481815626</tspan></tspan></tspan></text>
 <text class="TextShape"><tspan class="TextParagraph" font-family="Liberation Sans, sans-serif" font-size="529px" font-weight="400"><tspan class="TextPosition" x="4542" y="1682"><tspan fill="rgb(255,128,0)" stroke="none">f(x) = − 0.003877041539316 x + 63.9976364017783</tspan></tspan></tspan><tspan class="TextParagraph" font-family="Liberation Sans, sans-serif" font-size="529px" font-weight="400"><tspan class="TextPosition" x="4542" y="2264"><tspan fill="rgb(255,128,0)" stroke="none">R² = 0.999999943164607</tspan></tspan></tspan></text>
 <text class="TextShape"><tspan class="TextParagraph" font-family="Liberation Sans, sans-serif" font-size="635px" font-weight="400"><tspan class="TextPosition" x="7571" y="920"><tspan fill="rgb(0,0,0)" stroke="none">Setted voltage callibration without load</tspan></tspan></tspan></text>
 <path fill="rgb(255,66,14)" stroke="none" d="M 3355,11896 L 3503,12044 3651,11896 3503,11748 3355,11896 Z"/>
 <path fill="none" stroke="rgb(255,66,14)" stroke-linejoin="round" d="M 3355,11896 L 3503,12044 3651,11896 3503,11748 3355,11896 Z"/>
 <path fill="none" stroke="rgb(255,66,14)" stroke-width="51" stroke-linejoin="round" d="M 3103,12490 L 3903,12490"/>
 <path fill="rgb(87,157,28)" stroke="none" d="M 3355,13232 L 3651,13232 3503,12936 3355,13232 Z"/>
 <path fill="none" stroke="rgb(87,157,28)" stroke-linejoin="round" d="M 3355,13232 L 3651,13232 3503,12936 3355,13232 Z"/>
 <path fill="none" stroke="rgb(87,157,28)" stroke-width="51" stroke-linejoin="round" d="M 3103,13678 L 3903,13678"/>
 <path fill="rgb(131,202,255)" stroke="none" d="M 3355,14271 L 3651,14419 3651,14124 3355,14271 Z"/>
 <path fill="none" stroke="rgb(131,202,255)" stroke-linejoin="round" d="M 3355,14271 L 3651,14419 3651,14124 3355,14271 Z"/>
 <path fill="none" stroke="rgb(131,202,255)" stroke-width="51" stroke-linejoin="round" d="M 3103,14865 L 3903,14865"/>
 <path fill="rgb(174,207,0)" stroke="none" d="M 3355,15607 L 3651,15607 3355,15311 3651,15311 3355,15607 Z"/>
 <path fill="none" stroke="rgb(174,207,0)" stroke-linejoin="round" d="M 3355,15607 L 3651,15607 3355,15311 3651,15311 3355,15607 Z"/>
 <path fill="none" stroke="rgb(174,207,0)" stroke-width="51" stroke-linejoin="round" d="M 3103,16053 L 3903,16053"/>
 <text class="TextShape"><tspan class="TextParagraph" font-family="Liberation Sans, sans-serif" font-size="494px" font-weight="400"><tspan class="TextPosition" x="4011" y="12068"><tspan fill="rgb(0,0,0)" stroke="none">keithley measured master without load, bar no. 10</tspan></tspan></tspan></text>
 <text class="TextShape"><tspan class="TextParagraph" font-family="Liberation Sans, sans-serif" font-size="494px" font-weight="400"><tspan class="TextPosition" x="4011" y="12662"><tspan fill="rgb(0,0,0)" stroke="none">Linear (keithley measured master without load, bar no. 10)</tspan></tspan></tspan></text>
 <text class="TextShape"><tspan class="TextParagraph" font-family="Liberation Sans, sans-serif" font-size="494px" font-weight="400"><tspan class="TextPosition" x="4011" y="13256"><tspan fill="rgb(0,0,0)" stroke="none">keithley measured master without load, bar no. 12 </tspan></tspan></tspan></text>
 <text class="TextShape"><tspan class="TextParagraph" font-family="Liberation Sans, sans-serif" font-size="494px" font-weight="400"><tspan class="TextPosition" x="4011" y="13850"><tspan fill="rgb(0,0,0)" stroke="none">Linear (keithley measured master without load, bar no. 12 )</tspan></tspan></tspan></text>
 <text class="TextShape"><tspan class="TextParagraph" font-family="Liberation Sans, sans-serif" font-size="494px" font-weight="400"><tspan class="TextPosition" x="4011" y="14443"><tspan fill="rgb(0,0,0)" stroke="none">keithley measured slave without load, bar no. 10</tspan></tspan></tspan></text>
 <text class="TextShape"><tspan class="TextParagraph" font-family="Liberation Sans, sans-serif" font-size="494px" font-weight="400"><tspan class="TextPosition" x="4011" y="15037"><tspan fill="rgb(0,0,0)" stroke="none">Linear (keithley measured slave without load, bar no. 10)</tspan></tspan></tspan></text>
 <text class="TextShape"><tspan class="TextParagraph" font-family="Liberation Sans, sans-serif" font-size="494px" font-weight="400"><tspan class="TextPosition" x="4011" y="15631"><tspan fill="rgb(0,0,0)" stroke="none">keithley measured slave without load, bar no. 12</tspan></tspan></tspan></text>
 <text class="TextShape"><tspan class="TextParagraph" font-family="Liberation Sans, sans-serif" font-size="494px" font-weight="400"><tspan class="TextPosition" x="4011" y="16225"><tspan fill="rgb(0,0,0)" stroke="none">Linear (keithley measured slave without load, bar no. 12)</tspan></tspan></tspan></text>
 <text class="TextShape"><tspan class="TextParagraph" font-family="Liberation Sans, sans-serif" font-size="635px" font-weight="400"><tspan class="TextPosition" x="12335" y="18642"><tspan fill="rgb(0,0,0)" stroke="none">U [bit]</tspan></tspan></tspan></text>
 <text class="TextShape" transform="rotate(-90 773 9691)"><tspan class="TextParagraph" font-family="Liberation Sans, sans-serif" font-size="635px" font-weight="400"><tspan class="TextPosition" x="773" y="9691"><tspan fill="rgb(0,0,0)" stroke="none">U [V]</tspan></tspan></tspan></text>
</svg>